<svg xmlns="http://www.w3.org/2000/svg" width="1100" height="620" viewBox="0 0 1100 620">
<rect width="100%" height="100%" fill="white"/>
<text x="550" y="35" text-anchor="middle" font-size="22" font-family="Arial">Mahalanobis distance from real-data feature distribution</text>
<line x1="90" y1="440" x2="1070" y2="440" stroke="#333"/>
<line x1="90" y1="70" x2="90" y2="440" stroke="#333"/>
<line x1="85" y1="440.00" x2="1070" y2="440.00" stroke="#ddd"/>
<text x="80" y="444.00" text-anchor="end" font-size="12" font-family="Arial">0.00</text>
<line x1="85" y1="366.00" x2="1070" y2="366.00" stroke="#ddd"/>
<text x="80" y="370.00" text-anchor="end" font-size="12" font-family="Arial">3.87</text>
<line x1="85" y1="292.00" x2="1070" y2="292.00" stroke="#ddd"/>
<text x="80" y="296.00" text-anchor="end" font-size="12" font-family="Arial">7.73</text>
<line x1="85" y1="218.00" x2="1070" y2="218.00" stroke="#ddd"/>
<text x="80" y="222.00" text-anchor="end" font-size="12" font-family="Arial">11.60</text>
<line x1="85" y1="144.00" x2="1070" y2="144.00" stroke="#ddd"/>
<text x="80" y="148.00" text-anchor="end" font-size="12" font-family="Arial">15.47</text>
<line x1="85" y1="70.00" x2="1070" y2="70.00" stroke="#ddd"/>
<text x="80" y="74.00" text-anchor="end" font-size="12" font-family="Arial">19.33</text>
<rect x="90.00" y="70.00" width="87.20" height="370.00" fill="#1f77b4"/>
<text x="133.60" y="64.00" text-anchor="middle" font-size="11" font-family="Arial">19.33</text>
<text x="133.60" y="458.00" transform="rotate(45 133.60 458.00)" font-size="12" font-family="Arial">mask1_timegan.csv</text>
<rect x="189.20" y="78.54" width="87.20" height="361.46" fill="#1f77b4"/>
<text x="232.80" y="72.54" text-anchor="middle" font-size="11" font-family="Arial">18.89</text>
<text x="232.80" y="458.00" transform="rotate(45 232.80 458.00)" font-size="12" font-family="Arial">mask7_timegan.csv</text>
<rect x="288.40" y="97.17" width="87.20" height="342.83" fill="#1f77b4"/>
<text x="332.00" y="91.17" text-anchor="middle" font-size="11" font-family="Arial">17.92</text>
<text x="332.00" y="458.00" transform="rotate(45 332.00 458.00)" font-size="12" font-family="Arial">mask4_timegan.csv</text>
<rect x="387.60" y="115.00" width="87.20" height="325.00" fill="#1f77b4"/>
<text x="431.20" y="109.00" text-anchor="middle" font-size="11" font-family="Arial">16.98</text>
<text x="431.20" y="458.00" transform="rotate(45 431.20 458.00)" font-size="12" font-family="Arial">mask2_timegan.csv</text>
<rect x="486.80" y="116.49" width="87.20" height="323.51" fill="#1f77b4"/>
<text x="530.40" y="110.49" text-anchor="middle" font-size="11" font-family="Arial">16.91</text>
<text x="530.40" y="458.00" transform="rotate(45 530.40 458.00)" font-size="12" font-family="Arial">mask6_timegan.csv</text>
<rect x="586.00" y="120.55" width="87.20" height="319.45" fill="#1f77b4"/>
<text x="629.60" y="114.55" text-anchor="middle" font-size="11" font-family="Arial">16.69</text>
<text x="629.60" y="458.00" transform="rotate(45 629.60 458.00)" font-size="12" font-family="Arial">mask5_timegan.csv</text>
<rect x="685.20" y="146.01" width="87.20" height="293.99" fill="#1f77b4"/>
<text x="728.80" y="140.01" text-anchor="middle" font-size="11" font-family="Arial">15.36</text>
<text x="728.80" y="458.00" transform="rotate(45 728.80 458.00)" font-size="12" font-family="Arial">mask10_timegan.csv</text>
<rect x="784.40" y="180.11" width="87.20" height="259.89" fill="#1f77b4"/>
<text x="828.00" y="174.11" text-anchor="middle" font-size="11" font-family="Arial">13.58</text>
<text x="828.00" y="458.00" transform="rotate(45 828.00 458.00)" font-size="12" font-family="Arial">mask9_timegan.csv</text>
<rect x="883.60" y="218.04" width="87.20" height="221.96" fill="#1f77b4"/>
<text x="927.20" y="212.04" text-anchor="middle" font-size="11" font-family="Arial">11.60</text>
<text x="927.20" y="458.00" transform="rotate(45 927.20 458.00)" font-size="12" font-family="Arial">mask3_timegan.csv</text>
<rect x="982.80" y="218.27" width="87.20" height="221.73" fill="#1f77b4"/>
<text x="1026.40" y="212.27" text-anchor="middle" font-size="11" font-family="Arial">11.59</text>
<text x="1026.40" y="458.00" transform="rotate(45 1026.40 458.00)" font-size="12" font-family="Arial">mask8_timegan.csv</text>
<text x="22" y="255.00" transform="rotate(-90 22 255.00)" text-anchor="middle" font-size="14" font-family="Arial">Mahalanobis distance</text>
</svg>