<svg xmlns="http://www.w3.org/2000/svg" width="1100" height="620" viewBox="0 0 1100 620">
<rect width="100%" height="100%" fill="white"/>
<text x="550" y="35" text-anchor="middle" font-size="22" font-family="Arial">Mahalanobis distance from real-data feature distribution</text>
<line x1="90" y1="440" x2="1070" y2="440" stroke="#333"/>
<line x1="90" y1="70" x2="90" y2="440" stroke="#333"/>
<line x1="85" y1="440.00" x2="1070" y2="440.00" stroke="#ddd"/>
<text x="80" y="444.00" text-anchor="end" font-size="12" font-family="Arial">0.00</text>
<line x1="85" y1="366.00" x2="1070" y2="366.00" stroke="#ddd"/>
<text x="80" y="370.00" text-anchor="end" font-size="12" font-family="Arial">3.69</text>
<line x1="85" y1="292.00" x2="1070" y2="292.00" stroke="#ddd"/>
<text x="80" y="296.00" text-anchor="end" font-size="12" font-family="Arial">7.39</text>
<line x1="85" y1="218.00" x2="1070" y2="218.00" stroke="#ddd"/>
<text x="80" y="222.00" text-anchor="end" font-size="12" font-family="Arial">11.08</text>
<line x1="85" y1="144.00" x2="1070" y2="144.00" stroke="#ddd"/>
<text x="80" y="148.00" text-anchor="end" font-size="12" font-family="Arial">14.78</text>
<line x1="85" y1="70.00" x2="1070" y2="70.00" stroke="#ddd"/>
<text x="80" y="74.00" text-anchor="end" font-size="12" font-family="Arial">18.47</text>
<rect x="90.00" y="70.00" width="87.20" height="370.00" fill="#1f77b4"/>
<text x="133.60" y="64.00" text-anchor="middle" font-size="11" font-family="Arial">18.47</text>
<text x="133.60" y="458.00" transform="rotate(45 133.60 458.00)" font-size="12" font-family="Arial">mask1_timegan.csv</text>
<rect x="189.20" y="82.30" width="87.20" height="357.70" fill="#1f77b4"/>
<text x="232.80" y="76.30" text-anchor="middle" font-size="11" font-family="Arial">17.86</text>
<text x="232.80" y="458.00" transform="rotate(45 232.80 458.00)" font-size="12" font-family="Arial">mask7_timegan.csv</text>
<rect x="288.40" y="91.67" width="87.20" height="348.33" fill="#1f77b4"/>
<text x="332.00" y="85.67" text-anchor="middle" font-size="11" font-family="Arial">17.39</text>
<text x="332.00" y="458.00" transform="rotate(45 332.00 458.00)" font-size="12" font-family="Arial">mask4_timegan.csv</text>
<rect x="387.60" y="92.78" width="87.20" height="347.22" fill="#1f77b4"/>
<text x="431.20" y="86.78" text-anchor="middle" font-size="11" font-family="Arial">17.33</text>
<text x="431.20" y="458.00" transform="rotate(45 431.20 458.00)" font-size="12" font-family="Arial">mask10_timegan.csv</text>
<rect x="486.80" y="101.61" width="87.20" height="338.39" fill="#1f77b4"/>
<text x="530.40" y="95.61" text-anchor="middle" font-size="11" font-family="Arial">16.89</text>
<text x="530.40" y="458.00" transform="rotate(45 530.40 458.00)" font-size="12" font-family="Arial">mask2_timegan.csv</text>
<rect x="586.00" y="104.88" width="87.20" height="335.12" fill="#1f77b4"/>
<text x="629.60" y="98.88" text-anchor="middle" font-size="11" font-family="Arial">16.73</text>
<text x="629.60" y="458.00" transform="rotate(45 629.60 458.00)" font-size="12" font-family="Arial">mask5_timegan.csv</text>
<rect x="685.20" y="141.69" width="87.20" height="298.31" fill="#1f77b4"/>
<text x="728.80" y="135.69" text-anchor="middle" font-size="11" font-family="Arial">14.89</text>
<text x="728.80" y="458.00" transform="rotate(45 728.80 458.00)" font-size="12" font-family="Arial">mask6_timegan.csv</text>
<rect x="784.40" y="143.76" width="87.20" height="296.24" fill="#1f77b4"/>
<text x="828.00" y="137.76" text-anchor="middle" font-size="11" font-family="Arial">14.79</text>
<text x="828.00" y="458.00" transform="rotate(45 828.00 458.00)" font-size="12" font-family="Arial">mask8_timegan.csv</text>
<rect x="883.60" y="149.99" width="87.20" height="290.01" fill="#1f77b4"/>
<text x="927.20" y="143.99" text-anchor="middle" font-size="11" font-family="Arial">14.48</text>
<text x="927.20" y="458.00" transform="rotate(45 927.20 458.00)" font-size="12" font-family="Arial">mask9_timegan.csv</text>
<rect x="982.80" y="152.07" width="87.20" height="287.93" fill="#1f77b4"/>
<text x="1026.40" y="146.07" text-anchor="middle" font-size="11" font-family="Arial">14.37</text>
<text x="1026.40" y="458.00" transform="rotate(45 1026.40 458.00)" font-size="12" font-family="Arial">mask3_timegan.csv</text>
<text x="22" y="255.00" transform="rotate(-90 22 255.00)" text-anchor="middle" font-size="14" font-family="Arial">Mahalanobis distance</text>
</svg>