<svg xmlns="http://www.w3.org/2000/svg" width="1100" height="620" viewBox="0 0 1100 620">
<rect width="100%" height="100%" fill="white"/>
<text x="550" y="35" text-anchor="middle" font-size="22" font-family="Arial">Mahalanobis distance from real-data feature distribution</text>
<line x1="90" y1="440" x2="1070" y2="440" stroke="#333"/>
<line x1="90" y1="70" x2="90" y2="440" stroke="#333"/>
<line x1="85" y1="440.00" x2="1070" y2="440.00" stroke="#ddd"/>
<text x="80" y="444.00" text-anchor="end" font-size="12" font-family="Arial">0.00</text>
<line x1="85" y1="366.00" x2="1070" y2="366.00" stroke="#ddd"/>
<text x="80" y="370.00" text-anchor="end" font-size="12" font-family="Arial">5.21</text>
<line x1="85" y1="292.00" x2="1070" y2="292.00" stroke="#ddd"/>
<text x="80" y="296.00" text-anchor="end" font-size="12" font-family="Arial">10.42</text>
<line x1="85" y1="218.00" x2="1070" y2="218.00" stroke="#ddd"/>
<text x="80" y="222.00" text-anchor="end" font-size="12" font-family="Arial">15.63</text>
<line x1="85" y1="144.00" x2="1070" y2="144.00" stroke="#ddd"/>
<text x="80" y="148.00" text-anchor="end" font-size="12" font-family="Arial">20.84</text>
<line x1="85" y1="70.00" x2="1070" y2="70.00" stroke="#ddd"/>
<text x="80" y="74.00" text-anchor="end" font-size="12" font-family="Arial">26.05</text>
<rect x="90.00" y="70.00" width="87.20" height="370.00" fill="#1f77b4"/>
<text x="133.60" y="64.00" text-anchor="middle" font-size="11" font-family="Arial">26.05</text>
<text x="133.60" y="458.00" transform="rotate(45 133.60 458.00)" font-size="12" font-family="Arial">mask4_timegan.csv</text>
<rect x="189.20" y="83.19" width="87.20" height="356.81" fill="#1f77b4"/>
<text x="232.80" y="77.19" text-anchor="middle" font-size="11" font-family="Arial">25.12</text>
<text x="232.80" y="458.00" transform="rotate(45 232.80 458.00)" font-size="12" font-family="Arial">mask5_timegan.csv</text>
<rect x="288.40" y="85.15" width="87.20" height="354.85" fill="#1f77b4"/>
<text x="332.00" y="79.15" text-anchor="middle" font-size="11" font-family="Arial">24.98</text>
<text x="332.00" y="458.00" transform="rotate(45 332.00 458.00)" font-size="12" font-family="Arial">mask1_timegan.csv</text>
<rect x="387.60" y="101.96" width="87.20" height="338.04" fill="#1f77b4"/>
<text x="431.20" y="95.96" text-anchor="middle" font-size="11" font-family="Arial">23.80</text>
<text x="431.20" y="458.00" transform="rotate(45 431.20 458.00)" font-size="12" font-family="Arial">mask7_timegan.csv</text>
<rect x="486.80" y="108.57" width="87.20" height="331.43" fill="#1f77b4"/>
<text x="530.40" y="102.57" text-anchor="middle" font-size="11" font-family="Arial">23.34</text>
<text x="530.40" y="458.00" transform="rotate(45 530.40 458.00)" font-size="12" font-family="Arial">mask3_timegan.csv</text>
<rect x="586.00" y="132.73" width="87.20" height="307.27" fill="#1f77b4"/>
<text x="629.60" y="126.73" text-anchor="middle" font-size="11" font-family="Arial">21.63</text>
<text x="629.60" y="458.00" transform="rotate(45 629.60 458.00)" font-size="12" font-family="Arial">mask10_timegan.csv</text>
<rect x="685.20" y="135.62" width="87.20" height="304.38" fill="#1f77b4"/>
<text x="728.80" y="129.62" text-anchor="middle" font-size="11" font-family="Arial">21.43</text>
<text x="728.80" y="458.00" transform="rotate(45 728.80 458.00)" font-size="12" font-family="Arial">mask9_timegan.csv</text>
<rect x="784.40" y="139.53" width="87.20" height="300.47" fill="#1f77b4"/>
<text x="828.00" y="133.53" text-anchor="middle" font-size="11" font-family="Arial">21.16</text>
<text x="828.00" y="458.00" transform="rotate(45 828.00 458.00)" font-size="12" font-family="Arial">mask2_timegan.csv</text>
<rect x="883.60" y="153.80" width="87.20" height="286.20" fill="#1f77b4"/>
<text x="927.20" y="147.80" text-anchor="middle" font-size="11" font-family="Arial">20.15</text>
<text x="927.20" y="458.00" transform="rotate(45 927.20 458.00)" font-size="12" font-family="Arial">mask6_timegan.csv</text>
<rect x="982.80" y="164.21" width="87.20" height="275.79" fill="#1f77b4"/>
<text x="1026.40" y="158.21" text-anchor="middle" font-size="11" font-family="Arial">19.42</text>
<text x="1026.40" y="458.00" transform="rotate(45 1026.40 458.00)" font-size="12" font-family="Arial">mask8_timegan.csv</text>
<text x="22" y="255.00" transform="rotate(-90 22 255.00)" text-anchor="middle" font-size="14" font-family="Arial">Mahalanobis distance</text>
</svg>